# xmcd CD database file
#
# Track frame offsets:
#	150
#	18807
#	38782
#	63264
#	84691
#	112275
#	134631
#	154899
#	174657
#	177289
#	207542
#	254587
#	280180
#
# Disc length: 4044 seconds
#
# Revision: 1
# Processed by: cddbd v1.5.2PL0 Copyright (c) Steve Scherf et al.
# Submitted via: CDex 1.51
#
DISCID=c20fca0d
DTITLE=The S.O.S. Band - Sands Of Time  and 4 [Remaster, Japan Edition]
DYEAR=1986
DGENRE=Soul
TTITLE0=Even When You Sleep
TTITLE1=Sands Of Time
TTITLE2=Borrowed Love
TTITLE3=Nothing But The Best
TTITLE4=The Finest [feat. Alexander O'Neal and Cherrelle]
TTITLE5=No Lies
TTITLE6=Two Time Lover
TTITLE7=Do You Still Want To?
TTITLE8=Sands Of Time [Reprise]
TTITLE9=The Finest [feat. Alexander O'Neal and Cherrelle] [Extended Version]
TTITLE10=Borrowed Love [Extended Version - Acapella]
TTITLE11=Even When You Sleep [Extended Remix]
TTITLE12=No Lies [12" Dub]
EXTD=YEAR: 1986
EXTT0=
EXTT1=
EXTT2=
EXTT3=
EXTT4=
EXTT5=
EXTT6=
EXTT7=
EXTT8=
EXTT9=
EXTT10=
EXTT11=
EXTT12=
PLAYORDER=
